<mxfile host="app.diagrams.net" modified="2022-11-05T23:05:52.824Z" agent="5.0 (Windows NT 10.0; Win64; x64) AppleWebKit/537.36 (KHTML, like Gecko) Chrome/105.0.0.0 Safari/537.36 OPR/91.0.4516.106" etag="SoRuA5PgLrKM0WF3HLQ6" version="20.5.2" type="github">
  <diagram id="C5RBs43oDa-KdzZeNtuy" name="Page-1">
    <mxGraphModel dx="1319" dy="835" grid="1" gridSize="10" guides="1" tooltips="1" connect="1" arrows="1" fold="1" page="1" pageScale="1" pageWidth="827" pageHeight="1169" math="0" shadow="0">
      <root>
        <mxCell id="WIyWlLk6GJQsqaUBKTNV-0" />
        <mxCell id="WIyWlLk6GJQsqaUBKTNV-1" parent="WIyWlLk6GJQsqaUBKTNV-0" />
        <mxCell id="apEuc7IYnD1BBbvSn53i-0" value="exerceicio01" style="swimlane;fontStyle=1;align=center;verticalAlign=top;childLayout=stackLayout;horizontal=1;startSize=26;horizontalStack=0;resizeParent=1;resizeParentMax=0;resizeLast=0;collapsible=1;marginBottom=0;" vertex="1" parent="WIyWlLk6GJQsqaUBKTNV-1">
          <mxGeometry x="270" y="160" width="180" height="104" as="geometry" />
        </mxCell>
        <mxCell id="apEuc7IYnD1BBbvSn53i-1" value="- trajeto:int&#xa;- combustivel:int&#xa;- total:int&#xa;" style="text;strokeColor=none;fillColor=none;align=left;verticalAlign=top;spacingLeft=4;spacingRight=4;overflow=hidden;rotatable=0;points=[[0,0.5],[1,0.5]];portConstraint=eastwest;" vertex="1" parent="apEuc7IYnD1BBbvSn53i-0">
          <mxGeometry y="26" width="180" height="44" as="geometry" />
        </mxCell>
        <mxCell id="apEuc7IYnD1BBbvSn53i-2" value="" style="line;strokeWidth=1;fillColor=none;align=left;verticalAlign=middle;spacingTop=-1;spacingLeft=3;spacingRight=3;rotatable=0;labelPosition=right;points=[];portConstraint=eastwest;strokeColor=inherit;" vertex="1" parent="apEuc7IYnD1BBbvSn53i-0">
          <mxGeometry y="70" width="180" height="8" as="geometry" />
        </mxCell>
        <mxCell id="apEuc7IYnD1BBbvSn53i-3" value="+ total(trajeto,combustivel):int" style="text;strokeColor=none;fillColor=none;align=left;verticalAlign=top;spacingLeft=4;spacingRight=4;overflow=hidden;rotatable=0;points=[[0,0.5],[1,0.5]];portConstraint=eastwest;" vertex="1" parent="apEuc7IYnD1BBbvSn53i-0">
          <mxGeometry y="78" width="180" height="26" as="geometry" />
        </mxCell>
        <mxCell id="apEuc7IYnD1BBbvSn53i-4" value="exercicio02" style="swimlane;fontStyle=1;align=center;verticalAlign=top;childLayout=stackLayout;horizontal=1;startSize=26;horizontalStack=0;resizeParent=1;resizeParentMax=0;resizeLast=0;collapsible=1;marginBottom=0;" vertex="1" parent="WIyWlLk6GJQsqaUBKTNV-1">
          <mxGeometry x="270" y="320" width="190" height="140" as="geometry" />
        </mxCell>
        <mxCell id="apEuc7IYnD1BBbvSn53i-5" value="- dist:int&#xa;- total:int&#xa;- comb:int&#xa;- sc:Scanner" style="text;strokeColor=none;fillColor=none;align=left;verticalAlign=top;spacingLeft=4;spacingRight=4;overflow=hidden;rotatable=0;points=[[0,0.5],[1,0.5]];portConstraint=eastwest;" vertex="1" parent="apEuc7IYnD1BBbvSn53i-4">
          <mxGeometry y="26" width="190" height="64" as="geometry" />
        </mxCell>
        <mxCell id="apEuc7IYnD1BBbvSn53i-6" value="" style="line;strokeWidth=1;fillColor=none;align=left;verticalAlign=middle;spacingTop=-1;spacingLeft=3;spacingRight=3;rotatable=0;labelPosition=right;points=[];portConstraint=eastwest;strokeColor=inherit;" vertex="1" parent="apEuc7IYnD1BBbvSn53i-4">
          <mxGeometry y="90" width="190" height="8" as="geometry" />
        </mxCell>
        <mxCell id="apEuc7IYnD1BBbvSn53i-7" value="+ total(dist,comb):int&#xa;+ dist(sc): Scanner" style="text;strokeColor=none;fillColor=none;align=left;verticalAlign=top;spacingLeft=4;spacingRight=4;overflow=hidden;rotatable=0;points=[[0,0.5],[1,0.5]];portConstraint=eastwest;" vertex="1" parent="apEuc7IYnD1BBbvSn53i-4">
          <mxGeometry y="98" width="190" height="42" as="geometry" />
        </mxCell>
        <mxCell id="apEuc7IYnD1BBbvSn53i-8" value="exercicio03" style="swimlane;fontStyle=1;align=center;verticalAlign=top;childLayout=stackLayout;horizontal=1;startSize=26;horizontalStack=0;resizeParent=1;resizeParentMax=0;resizeLast=0;collapsible=1;marginBottom=0;" vertex="1" parent="WIyWlLk6GJQsqaUBKTNV-1">
          <mxGeometry x="270" y="510" width="180" height="200" as="geometry" />
        </mxCell>
        <mxCell id="apEuc7IYnD1BBbvSn53i-9" value="- c1:double&#xa;- c2:double&#xa;- c3:double&#xa;- tot:double&#xa;- dc:DecimalFormat&#xa;- sc:Scanner&#xa;" style="text;strokeColor=none;fillColor=none;align=left;verticalAlign=top;spacingLeft=4;spacingRight=4;overflow=hidden;rotatable=0;points=[[0,0.5],[1,0.5]];portConstraint=eastwest;" vertex="1" parent="apEuc7IYnD1BBbvSn53i-8">
          <mxGeometry y="26" width="180" height="94" as="geometry" />
        </mxCell>
        <mxCell id="apEuc7IYnD1BBbvSn53i-10" value="" style="line;strokeWidth=1;fillColor=none;align=left;verticalAlign=middle;spacingTop=-1;spacingLeft=3;spacingRight=3;rotatable=0;labelPosition=right;points=[];portConstraint=eastwest;strokeColor=inherit;" vertex="1" parent="apEuc7IYnD1BBbvSn53i-8">
          <mxGeometry y="120" width="180" height="8" as="geometry" />
        </mxCell>
        <mxCell id="apEuc7IYnD1BBbvSn53i-11" value="+ total(c1,c2,c3):double&#xa;+ c1(sc):Scanner&#xa;+ c2(sc):Scanner&#xa;+ c3(sc):Scanner&#xa;" style="text;strokeColor=none;fillColor=none;align=left;verticalAlign=top;spacingLeft=4;spacingRight=4;overflow=hidden;rotatable=0;points=[[0,0.5],[1,0.5]];portConstraint=eastwest;" vertex="1" parent="apEuc7IYnD1BBbvSn53i-8">
          <mxGeometry y="128" width="180" height="72" as="geometry" />
        </mxCell>
        <mxCell id="apEuc7IYnD1BBbvSn53i-12" value="exercicio04" style="swimlane;fontStyle=1;align=center;verticalAlign=top;childLayout=stackLayout;horizontal=1;startSize=26;horizontalStack=0;resizeParent=1;resizeParentMax=0;resizeLast=0;collapsible=1;marginBottom=0;" vertex="1" parent="WIyWlLk6GJQsqaUBKTNV-1">
          <mxGeometry x="270" y="780" width="160" height="94" as="geometry" />
        </mxCell>
        <mxCell id="apEuc7IYnD1BBbvSn53i-13" value="- valor:int&#xa;- sc:Scanner" style="text;strokeColor=none;fillColor=none;align=left;verticalAlign=top;spacingLeft=4;spacingRight=4;overflow=hidden;rotatable=0;points=[[0,0.5],[1,0.5]];portConstraint=eastwest;" vertex="1" parent="apEuc7IYnD1BBbvSn53i-12">
          <mxGeometry y="26" width="160" height="34" as="geometry" />
        </mxCell>
        <mxCell id="apEuc7IYnD1BBbvSn53i-14" value="" style="line;strokeWidth=1;fillColor=none;align=left;verticalAlign=middle;spacingTop=-1;spacingLeft=3;spacingRight=3;rotatable=0;labelPosition=right;points=[];portConstraint=eastwest;strokeColor=inherit;" vertex="1" parent="apEuc7IYnD1BBbvSn53i-12">
          <mxGeometry y="60" width="160" height="8" as="geometry" />
        </mxCell>
        <mxCell id="apEuc7IYnD1BBbvSn53i-15" value="+ valor(sc):Scanner" style="text;strokeColor=none;fillColor=none;align=left;verticalAlign=top;spacingLeft=4;spacingRight=4;overflow=hidden;rotatable=0;points=[[0,0.5],[1,0.5]];portConstraint=eastwest;" vertex="1" parent="apEuc7IYnD1BBbvSn53i-12">
          <mxGeometry y="68" width="160" height="26" as="geometry" />
        </mxCell>
        <mxCell id="apEuc7IYnD1BBbvSn53i-16" value="exercicio05" style="swimlane;fontStyle=1;align=center;verticalAlign=top;childLayout=stackLayout;horizontal=1;startSize=26;horizontalStack=0;resizeParent=1;resizeParentMax=0;resizeLast=0;collapsible=1;marginBottom=0;" vertex="1" parent="WIyWlLk6GJQsqaUBKTNV-1">
          <mxGeometry x="270" y="930" width="170" height="210" as="geometry" />
        </mxCell>
        <mxCell id="apEuc7IYnD1BBbvSn53i-17" value="- lbSenha:JLabel&#xa;- lbUsuario:JLabel&#xa;- lbEmail:JLabel&#xa;- tfUsuario:JTextField&#xa;- tfEmail:JTextField&#xa;- btLogar:JButton&#xa;- btCancel:JButton&#xa;- pfSenha:JPasswordField" style="text;strokeColor=none;fillColor=none;align=left;verticalAlign=top;spacingLeft=4;spacingRight=4;overflow=hidden;rotatable=0;points=[[0,0.5],[1,0.5]];portConstraint=eastwest;" vertex="1" parent="apEuc7IYnD1BBbvSn53i-16">
          <mxGeometry y="26" width="170" height="134" as="geometry" />
        </mxCell>
        <mxCell id="apEuc7IYnD1BBbvSn53i-18" value="" style="line;strokeWidth=1;fillColor=none;align=left;verticalAlign=middle;spacingTop=-1;spacingLeft=3;spacingRight=3;rotatable=0;labelPosition=right;points=[];portConstraint=eastwest;strokeColor=inherit;" vertex="1" parent="apEuc7IYnD1BBbvSn53i-16">
          <mxGeometry y="160" width="170" height="8" as="geometry" />
        </mxCell>
        <mxCell id="apEuc7IYnD1BBbvSn53i-19" value="+ iniciarComp():boolean&#xa;+ events():boolean" style="text;strokeColor=none;fillColor=none;align=left;verticalAlign=top;spacingLeft=4;spacingRight=4;overflow=hidden;rotatable=0;points=[[0,0.5],[1,0.5]];portConstraint=eastwest;" vertex="1" parent="apEuc7IYnD1BBbvSn53i-16">
          <mxGeometry y="168" width="170" height="42" as="geometry" />
        </mxCell>
      </root>
    </mxGraphModel>
  </diagram>
</mxfile>
